<svg width="24" height="24" viewBox="0 0 24 24" fill="none" xmlns="http://www.w3.org/2000/svg">
<g filter="url(#filter0_ii_3969_17737)">
<path d="M15.1006 2L20.1006 7V20C20.1006 21.1045 19.2051 21.9999 18.1006 22H5.90039C4.79582 22 3.90039 21.1046 3.90039 20V4C3.90039 2.89543 4.79582 2 5.90039 2H15.1006Z" fill="#576A95"/>
</g>
<g filter="url(#filter1_dd_3969_17737)">
<path d="M13.375 14.4893V17.2053C13.375 17.2946 13.3573 17.3829 13.3231 17.4653C13.2889 17.5476 13.2388 17.6225 13.1756 17.6855C13.048 17.8128 12.875 17.8844 12.6946 17.8843H11.3054C11.1251 17.8844 10.9521 17.8129 10.8244 17.6856C10.7612 17.6226 10.711 17.5477 10.6768 17.4653C10.6426 17.3828 10.625 17.2945 10.625 17.2052V14.4893H13.375ZM12.6946 16.0453H11.3054V17.4091H12.6946V16.0453ZM13.3523 11.7733V13.1371H11.9859V11.7733H13.3523ZM12.0029 2.19922V3.57422H13.375V4.94922H12.0027V6.22234H13.375V7.59734H12.0029V8.95547H13.375V10.3136H12.0029V11.6716H10.625V10.3135H11.9971V8.95534H10.625V7.59734H11.9971V6.22234H10.625V4.84734H11.9971V3.57422H10.625V2.19922H12.0029Z" fill="white"/>
</g>
<path d="M15.2655 7L20.0996 7L15.0996 2L15.0996 6.83407C15.0996 6.92571 15.1739 7 15.2655 7Z" fill="#BBC3D4"/>
<defs>
<filter id="filter0_ii_3969_17737" x="3.90039" y="1.98963" width="16.2002" height="20.0207" filterUnits="userSpaceOnUse" color-interpolation-filters="sRGB">
<feFlood flood-opacity="0" result="BackgroundImageFix"/>
<feBlend mode="normal" in="SourceGraphic" in2="BackgroundImageFix" result="shape"/>
<feColorMatrix in="SourceAlpha" type="matrix" values="0 0 0 0 0 0 0 0 0 0 0 0 0 0 0 0 0 0 127 0" result="hardAlpha"/>
<feOffset dy="-0.0207407"/>
<feGaussianBlur stdDeviation="0.00518519"/>
<feComposite in2="hardAlpha" operator="arithmetic" k2="-1" k3="1"/>
<feColorMatrix type="matrix" values="0 0 0 0 0 0 0 0 0 0 0 0 0 0 0 0 0 0 0.3 0"/>
<feBlend mode="normal" in2="shape" result="effect1_innerShadow_3969_17737"/>
<feColorMatrix in="SourceAlpha" type="matrix" values="0 0 0 0 0 0 0 0 0 0 0 0 0 0 0 0 0 0 127 0" result="hardAlpha"/>
<feOffset dy="0.0207407"/>
<feGaussianBlur stdDeviation="0.00518519"/>
<feComposite in2="hardAlpha" operator="arithmetic" k2="-1" k3="1"/>
<feColorMatrix type="matrix" values="0 0 0 0 1 0 0 0 0 1 0 0 0 0 1 0 0 0 0.3 0"/>
<feBlend mode="normal" in2="effect1_innerShadow_3969_17737" result="effect2_innerShadow_3969_17737"/>
</filter>
<filter id="filter1_dd_3969_17737" x="10.6146" y="2.18885" width="2.84333" height="15.7996" filterUnits="userSpaceOnUse" color-interpolation-filters="sRGB">
<feFlood flood-opacity="0" result="BackgroundImageFix"/>
<feColorMatrix in="SourceAlpha" type="matrix" values="0 0 0 0 0 0 0 0 0 0 0 0 0 0 0 0 0 0 127 0" result="hardAlpha"/>
<feOffset dx="0.0414815" dy="0.0622222"/>
<feGaussianBlur stdDeviation="0.0207407"/>
<feColorMatrix type="matrix" values="0 0 0 0 0 0 0 0 0 0 0 0 0 0 0 0 0 0 0.1 0"/>
<feBlend mode="normal" in2="BackgroundImageFix" result="effect1_dropShadow_3969_17737"/>
<feColorMatrix in="SourceAlpha" type="matrix" values="0 0 0 0 0 0 0 0 0 0 0 0 0 0 0 0 0 0 127 0" result="hardAlpha"/>
<feOffset/>
<feGaussianBlur stdDeviation="0.00518519"/>
<feColorMatrix type="matrix" values="0 0 0 0 0 0 0 0 0 0 0 0 0 0 0 0 0 0 0.4 0"/>
<feBlend mode="normal" in2="effect1_dropShadow_3969_17737" result="effect2_dropShadow_3969_17737"/>
<feBlend mode="normal" in="SourceGraphic" in2="effect2_dropShadow_3969_17737" result="shape"/>
</filter>
</defs>
</svg>
