<svg width="24" height="24" viewBox="0 0 24 24" fill="none" xmlns="http://www.w3.org/2000/svg">
<g filter="url(#filter0_ii_3969_17744)">
<path d="M15.1006 2L20.1006 7V20C20.1006 21.1045 19.2051 21.9999 18.1006 22H5.90039C4.79582 22 3.90039 21.1046 3.90039 20V4C3.90039 2.89543 4.79582 2 5.90039 2H15.1006Z" fill="#CCCCCC"/>
</g>
<g filter="url(#filter1_dd_3969_17744)">
<path d="M9.5 11.75C9.5 11.25 9.6 10.85 9.7 10.6C9.8 10.35 10 10.1 10.25 9.9C10.5 9.65 10.75 9.5 11.1 9.4C11.4 9.3 11.7 9.25 12.05 9.25C12.75 9.25 13.3 9.45 13.8 9.85C14.25 10.25 14.5 10.75 14.5 11.4C14.5 11.7 14.4 11.95 14.3 12.2C14.2 12.45 13.95 12.75 13.55 13.1C13.15 13.45 13 13.7 12.85 13.85C12.7 14 12.65 14.2 12.55 14.4C12.45 14.6 12.5 14.75 12.5 15.25H11.5C11.5 14.75 11.55 14.5 11.6 14.25C11.65 14 11.75 13.8 11.9 13.6C12.05 13.4 12.2 13.15 12.55 12.8C12.9 12.45 13.15 12.2 13.25 12.05C13.35 11.9 13.45 11.65 13.45 11.3C13.45 10.95 13.3 10.7 13.05 10.45C12.8 10.2 12.45 10.05 12 10.05C11 10.05 10.5 10.75 10.5 11.75H9.5ZM12.5 17.25H11.5V16.25H12.5V17.25Z" fill="white"/>
</g>
<path d="M15.2655 7L20.0996 7L15.0996 2L15.0996 6.83407C15.0996 6.92571 15.1739 7 15.2655 7Z" fill="#EAEAEA"/>
<defs>
<filter id="filter0_ii_3969_17744" x="3.90039" y="1.98963" width="16.2002" height="20.0207" filterUnits="userSpaceOnUse" color-interpolation-filters="sRGB">
<feFlood flood-opacity="0" result="BackgroundImageFix"/>
<feBlend mode="normal" in="SourceGraphic" in2="BackgroundImageFix" result="shape"/>
<feColorMatrix in="SourceAlpha" type="matrix" values="0 0 0 0 0 0 0 0 0 0 0 0 0 0 0 0 0 0 127 0" result="hardAlpha"/>
<feOffset dy="-0.0207407"/>
<feGaussianBlur stdDeviation="0.00518519"/>
<feComposite in2="hardAlpha" operator="arithmetic" k2="-1" k3="1"/>
<feColorMatrix type="matrix" values="0 0 0 0 0 0 0 0 0 0 0 0 0 0 0 0 0 0 0.3 0"/>
<feBlend mode="normal" in2="shape" result="effect1_innerShadow_3969_17744"/>
<feColorMatrix in="SourceAlpha" type="matrix" values="0 0 0 0 0 0 0 0 0 0 0 0 0 0 0 0 0 0 127 0" result="hardAlpha"/>
<feOffset dy="0.0207407"/>
<feGaussianBlur stdDeviation="0.00518519"/>
<feComposite in2="hardAlpha" operator="arithmetic" k2="-1" k3="1"/>
<feColorMatrix type="matrix" values="0 0 0 0 1 0 0 0 0 1 0 0 0 0 1 0 0 0 0.3 0"/>
<feBlend mode="normal" in2="effect1_innerShadow_3969_17744" result="effect2_innerShadow_3969_17744"/>
</filter>
<filter id="filter1_dd_3969_17744" x="9.48963" y="9.23963" width="5.09333" height="8.11407" filterUnits="userSpaceOnUse" color-interpolation-filters="sRGB">
<feFlood flood-opacity="0" result="BackgroundImageFix"/>
<feColorMatrix in="SourceAlpha" type="matrix" values="0 0 0 0 0 0 0 0 0 0 0 0 0 0 0 0 0 0 127 0" result="hardAlpha"/>
<feOffset dx="0.0414815" dy="0.0622222"/>
<feGaussianBlur stdDeviation="0.0207407"/>
<feColorMatrix type="matrix" values="0 0 0 0 0 0 0 0 0 0 0 0 0 0 0 0 0 0 0.1 0"/>
<feBlend mode="normal" in2="BackgroundImageFix" result="effect1_dropShadow_3969_17744"/>
<feColorMatrix in="SourceAlpha" type="matrix" values="0 0 0 0 0 0 0 0 0 0 0 0 0 0 0 0 0 0 127 0" result="hardAlpha"/>
<feOffset/>
<feGaussianBlur stdDeviation="0.00518519"/>
<feColorMatrix type="matrix" values="0 0 0 0 0 0 0 0 0 0 0 0 0 0 0 0 0 0 0.4 0"/>
<feBlend mode="normal" in2="effect1_dropShadow_3969_17744" result="effect2_dropShadow_3969_17744"/>
<feBlend mode="normal" in="SourceGraphic" in2="effect2_dropShadow_3969_17744" result="shape"/>
</filter>
</defs>
</svg>
