<svg width="24" height="24" viewBox="0 0 24 24" fill="none" xmlns="http://www.w3.org/2000/svg">
<g filter="url(#filter0_ii_3969_17723)">
<path d="M15.1006 2L20.1006 7V20C20.1006 21.1045 19.2051 21.9999 18.1006 22H5.90039C4.79582 22 3.90039 21.1046 3.90039 20V4C3.90039 2.89543 4.79582 2 5.90039 2H15.1006Z" fill="#F16C00"/>
</g>
<path d="M16.2149 11.9802C16.1852 12.1278 16.1268 12.2681 16.043 12.3931C15.9747 12.4968 15.9055 12.5663 15.8361 12.5311C15.7679 12.5311 15.7326 12.083 15.6995 12.0135C15.6466 11.893 15.6118 11.7653 15.5961 11.6347C15.5619 11.359 15.4585 11.1162 15.2856 11.0135C15.1139 10.8756 14.8739 10.7718 14.5635 10.7022C14.2265 10.6367 13.9088 10.4956 13.6342 10.2895C13.3591 10.082 13.0498 9.90983 12.878 9.70233C12.7051 9.5302 12.5675 9.49483 12.4992 9.5302C12.3958 9.56445 12.3616 9.6682 12.3616 9.77183V16.1875C12.3616 16.3607 12.3275 16.5671 12.2581 16.7746C12.1899 16.9821 12.1546 17.1883 11.9829 17.3948C11.8111 17.6023 11.5701 17.7402 11.2607 17.8782C10.9502 18.0162 10.5726 18.0857 10.1588 18.1198C9.73203 18.1468 9.30555 18.0636 8.92025 17.8782C8.58871 17.7259 8.29505 17.502 8.06038 17.2226C7.8535 16.9467 7.75 16.6708 7.75 16.3253C7.75 16.0153 7.88875 15.7051 8.198 15.4291C8.47325 15.1532 8.78263 14.9458 9.12713 14.8421C9.47075 14.7383 9.78113 14.67 10.0905 14.67C10.4009 14.67 10.882 14.67 11.123 14.7393C11.3631 14.8078 11.536 14.8431 11.6735 14.8773V8.77108C11.6735 8.56358 11.7419 8.39233 11.8454 8.25445C11.9488 8.11645 12.1205 8.04695 12.2923 8.01283C12.4651 7.97858 12.6028 8.01283 12.7061 8.11658C12.8096 8.18495 12.7061 8.32395 12.8428 8.46083C12.9462 8.59883 13.0839 8.77208 13.2566 8.97845C13.4284 9.18595 13.6343 9.35808 13.9095 9.53033C14.1506 9.70245 14.3575 9.8062 14.5293 9.90995C14.7011 9.97845 14.8739 10.048 15.0115 10.1175C15.149 10.1858 15.3209 10.2543 15.4585 10.3581C15.596 10.4618 15.7689 10.5997 15.9396 10.8072C16.1124 11.0147 16.2149 11.1858 16.25 11.3932C16.25 11.6007 16.25 11.8071 16.2149 11.9793V11.9803V11.9802Z" fill="white"/>
<path d="M15.2655 7L20.0996 7L15.0996 2L15.0996 6.83407C15.0996 6.92571 15.1739 7 15.2655 7Z" fill="#F9C499"/>
<defs>
<filter id="filter0_ii_3969_17723" x="3.90039" y="1.98963" width="16.2002" height="20.0207" filterUnits="userSpaceOnUse" color-interpolation-filters="sRGB">
<feFlood flood-opacity="0" result="BackgroundImageFix"/>
<feBlend mode="normal" in="SourceGraphic" in2="BackgroundImageFix" result="shape"/>
<feColorMatrix in="SourceAlpha" type="matrix" values="0 0 0 0 0 0 0 0 0 0 0 0 0 0 0 0 0 0 127 0" result="hardAlpha"/>
<feOffset dy="-0.0207407"/>
<feGaussianBlur stdDeviation="0.00518519"/>
<feComposite in2="hardAlpha" operator="arithmetic" k2="-1" k3="1"/>
<feColorMatrix type="matrix" values="0 0 0 0 0 0 0 0 0 0 0 0 0 0 0 0 0 0 0.3 0"/>
<feBlend mode="normal" in2="shape" result="effect1_innerShadow_3969_17723"/>
<feColorMatrix in="SourceAlpha" type="matrix" values="0 0 0 0 0 0 0 0 0 0 0 0 0 0 0 0 0 0 127 0" result="hardAlpha"/>
<feOffset dy="0.0207407"/>
<feGaussianBlur stdDeviation="0.00518519"/>
<feComposite in2="hardAlpha" operator="arithmetic" k2="-1" k3="1"/>
<feColorMatrix type="matrix" values="0 0 0 0 1 0 0 0 0 1 0 0 0 0 1 0 0 0 0.3 0"/>
<feBlend mode="normal" in2="effect1_innerShadow_3969_17723" result="effect2_innerShadow_3969_17723"/>
</filter>
</defs>
</svg>
