<svg width="20" height="20" viewBox="0 0 20 20" fill="none" xmlns="http://www.w3.org/2000/svg">
<path d="M5.625 1.875C4.63044 1.875 3.67661 2.27009 2.97335 2.97335C2.27009 3.67661 1.875 4.63044 1.875 5.625C1.875 6.61956 2.27009 7.57339 2.97335 8.27665C3.67661 8.97991 4.63044 9.375 5.625 9.375H8.75C8.91576 9.375 9.07473 9.30915 9.19194 9.19194C9.30915 9.07473 9.375 8.91576 9.375 8.75V5.625C9.375 4.63044 8.97991 3.67661 8.27665 2.97335C7.57339 2.27009 6.61956 1.875 5.625 1.875ZM8.75 10.625H5.625C4.88332 10.625 4.1583 10.8449 3.54161 11.257C2.92493 11.669 2.44428 12.2547 2.16045 12.9399C1.87662 13.6252 1.80236 14.3792 1.94706 15.1066C2.09175 15.834 2.4489 16.5022 2.97335 17.0267C3.4978 17.5511 4.16598 17.9083 4.89341 18.0529C5.62084 18.1976 6.37484 18.1234 7.06006 17.8396C7.74529 17.5557 8.33096 17.0751 8.74301 16.4584C9.15507 15.8417 9.375 15.1167 9.375 14.375V11.25C9.375 11.0842 9.30915 10.9253 9.19194 10.8081C9.07473 10.6908 8.91576 10.625 8.75 10.625Z" fill="#999999"/>
<path d="M14.375 2.375C15.237 2.375 16.0634 2.71766 16.6729 3.32715C17.2823 3.93664 17.625 4.76305 17.625 5.625C17.625 6.48695 17.2823 7.31336 16.6729 7.92285C16.0634 8.53234 15.237 8.875 14.375 8.875H11.25C11.2168 8.875 11.1846 8.86231 11.1611 8.83887C11.1377 8.81543 11.125 8.78315 11.125 8.75V5.625C11.125 4.76305 11.4677 3.93664 12.0771 3.32715C12.6866 2.71766 13.513 2.375 14.375 2.375Z" stroke="#999999"/>
<path d="M14 11L14 17M17 14L11 14" stroke="#999999" stroke-linecap="round"/>
</svg>
