<svg width="16" height="16" viewBox="0 0 16 16" fill="none" xmlns="http://www.w3.org/2000/svg">
<path d="M2.426 2.28572L13.574 2.28572C13.808 2.28572 14 2.49773 14 2.75612C14 3.0145 13.808 3.22651 13.574 3.22651L2.426 3.22651C2.192 3.22651 2 3.0145 2 2.75611C2 2.49773 2.192 2.28572 2.426 2.28572ZM2.426 12.7669L13.574 12.7669C13.808 12.7669 14 12.9789 14 13.2373C14 13.4957 13.808 13.7143 13.574 13.7143L2.426 13.7143C2.192 13.7143 2 13.5023 2 13.2439C2 12.9855 2.192 12.7669 2.426 12.7669ZM2.426 7.5263L8.474 7.5263C8.708 7.5263 8.9 7.73831 8.9 7.9967C8.9 8.25508 8.708 8.46709 8.474 8.46709L2.426 8.46709C2.192 8.46709 2 8.25508 2 7.99669C2 7.73831 2.192 7.5263 2.426 7.5263Z" fill="#000000"/>
<path d="M10.2922 7.74579L13.3762 5.78472C13.6102 5.63234 13.9102 5.81784 13.9102 6.1226V10.058C13.9102 10.3561 13.6162 10.5483 13.3762 10.3959L10.2922 8.4282C10.0522 8.27581 10.0522 7.89817 10.2922 7.74579Z" fill="#000000"/>
</svg>
