<svg width="20" height="20" viewBox="0 0 20 20" fill="none" xmlns="http://www.w3.org/2000/svg">
<g opacity="0.7">
<g clip-path="url(#clip0_12_2477)">
<g clip-path="url(#clip1_12_2477)">
<path d="M12.9579 7.89526C12.8625 7.8152 12.7839 7.71713 12.7264 7.60664C12.6689 7.49617 12.6337 7.37544 12.6229 7.25137C12.612 7.1273 12.6258 7.00231 12.6632 6.88353C12.7007 6.76475 12.7612 6.65452 12.8413 6.55914L15.1325 3.82709C15.2942 3.63444 15.5256 3.51391 15.7761 3.49202C16.0266 3.47014 16.2755 3.54869 16.4681 3.7104C16.6606 3.87209 16.7811 4.10372 16.803 4.35428C16.8249 4.60485 16.7463 4.85386 16.5848 5.04651L14.2934 7.77856C14.2134 7.87397 14.1154 7.95266 14.005 8.01016C13.8945 8.06766 13.7738 8.10283 13.6498 8.11366C13.5258 8.1245 13.4008 8.11079 13.2822 8.07332C13.1634 8.03584 13.0532 7.97533 12.9579 7.89526ZM16.9077 3.19066C16.5699 2.90862 16.1342 2.77187 15.6957 2.81028C15.2574 2.84867 14.852 3.05912 14.5684 3.39562L4.33683 15.5942C4.05506 15.9321 3.91845 16.3679 3.95684 16.8064C3.99522 17.2449 4.20549 17.6502 4.54169 17.9341C4.70806 18.0738 4.90035 18.1794 5.10752 18.2448C5.31471 18.3102 5.53275 18.3341 5.74917 18.3151C5.9656 18.2962 6.17617 18.2348 6.36886 18.1344C6.56155 18.034 6.73258 17.8967 6.87217 17.73L17.1116 5.52261C17.3937 5.18631 17.5307 4.7517 17.4924 4.31439C17.4542 3.87708 17.2438 3.47286 16.9077 3.19066ZM6.6129 3.55104L7.24025 5.58684L9.27567 6.21493L7.24074 6.84254L6.6129 8.87834L5.98556 6.84254L3.95061 6.21493L5.98556 5.58684L6.6129 3.55104ZM11.0484 1.75501L11.3704 2.79939L12.4144 3.12153L11.3704 3.44367L11.0484 4.48804L10.7264 3.44367L9.68247 3.12153L10.7264 2.79939L11.0484 1.75501Z" fill="url(#paint0_linear_12_2477)"/>
</g>
<g clip-path="url(#clip2_12_2477)">
<path d="M2.60325 1.65344L2.82722 2.38233L3.55256 2.60724L2.82722 2.83216L2.60325 3.56104L2.37927 2.83216L1.65344 2.60724L2.37878 2.38233L2.60325 1.65344Z" fill="url(#paint1_linear_12_2477)"/>
</g>
<g clip-path="url(#clip3_12_2477)">
<path d="M16.6262 8.74966L17.0155 10.0165L18.2793 10.4071L17.0155 10.7978L16.6262 12.0646L16.2365 10.7978L14.9728 10.4071L16.2365 10.0165L16.6262 8.74966Z" fill="url(#paint2_linear_12_2477)"/>
</g>
</g>
</g>
<defs>
<linearGradient id="paint0_linear_12_2477" x1="6.70245" y1="3.82581" x2="16.9233" y2="15.044" gradientUnits="userSpaceOnUse">
<stop stop-color="#DB8AF6"/>
<stop offset="0.495" stop-color="#9B74F5"/>
<stop offset="1" stop-color="#5968F2"/>
</linearGradient>
<linearGradient id="paint1_linear_12_2477" x1="2.0392" y1="1.89189" x2="3.17327" y2="3.40717" gradientUnits="userSpaceOnUse">
<stop stop-color="#DB8AF6"/>
<stop offset="0.495" stop-color="#9B74F5"/>
<stop offset="1" stop-color="#5968F2"/>
</linearGradient>
<linearGradient id="paint2_linear_12_2477" x1="15.6444" y1="9.16404" x2="17.6141" y2="11.8008" gradientUnits="userSpaceOnUse">
<stop stop-color="#DB8AF6"/>
<stop offset="0.495" stop-color="#9B74F5"/>
<stop offset="1" stop-color="#5968F2"/>
</linearGradient>
<clipPath id="clip0_12_2477">
<rect width="16.6245" height="16.6669" fill="white" transform="translate(1.65344 1.65344)"/>
</clipPath>
<clipPath id="clip1_12_2477">
<rect width="13.5472" height="16.5652" fill="white" transform="translate(3.95048 1.75501)"/>
</clipPath>
<clipPath id="clip2_12_2477">
<rect width="1.89898" height="1.90746" fill="white" transform="translate(1.65344 1.65344)"/>
</clipPath>
<clipPath id="clip3_12_2477">
<rect width="3.30626" height="3.31473" fill="white" transform="translate(14.9728 8.74966)"/>
</clipPath>
</defs>
</svg>
