<svg width="14" height="14" viewBox="0 0 14 14" fill="none" xmlns="http://www.w3.org/2000/svg">
<path d="M3.76802 3.94912C3.66322 3.90766 3.54899 3.88488 3.42942 3.88488C3.30985 3.88488 3.19562 3.90766 3.09082 3.94912V2.3386C3.09082 2.15159 3.24241 2 3.42942 2C3.61643 2 3.76802 2.15159 3.76802 2.3386V3.94912ZM3.76802 5.65818V11.6614C3.76802 11.8484 3.61643 12 3.42942 12C3.24241 12 3.09082 11.8484 3.09082 11.6614V5.65818C3.19562 5.69964 3.30985 5.72243 3.42942 5.72243C3.54899 5.72243 3.66322 5.69964 3.76802 5.65818ZM7.30197 8.31763C7.19685 8.27581 7.08219 8.25282 6.96215 8.25282C6.84306 8.25282 6.72923 8.27546 6.62477 8.31666V2.3386C6.62477 2.15159 6.77637 2 6.96337 2C7.15038 2 7.30197 2.15159 7.30197 2.3386V8.31763ZM7.30197 10.0277V11.6614C7.30197 11.8484 7.15038 12 6.96337 12C6.77637 12 6.62477 11.8484 6.62477 11.6614V10.0287C6.72923 10.0699 6.84306 10.0926 6.96215 10.0926C7.08219 10.0926 7.19685 10.0696 7.30197 10.0277ZM10.9306 5.22727C10.824 5.18406 10.7074 5.16027 10.5852 5.16027C10.4682 5.16027 10.3564 5.18208 10.2534 5.22183V2.3386C10.2534 2.15159 10.405 2 10.592 2C10.779 2 10.9306 2.15159 10.9306 2.3386V5.22727ZM10.9306 6.93082V11.6614C10.9306 11.8484 10.779 12 10.592 12C10.405 12 10.2534 11.8484 10.2534 11.6614V6.93625C10.3564 6.97602 10.4682 6.99782 10.5852 6.99782C10.7074 6.99782 10.824 6.97403 10.9306 6.93082Z" fill="#333333"/>
<path d="M3.4291 6.39966C2.54725 6.39966 1.83203 5.68529 1.83203 4.80367C1.83203 3.92207 2.54725 3.2077 3.4291 3.2077C4.31095 3.2077 5.02616 3.92207 5.02616 4.80367C5.02616 5.68529 4.31095 6.39966 3.4291 6.39966ZM6.96183 10.7698C6.0798 10.7698 5.36476 10.0547 5.36476 9.17271C5.36476 8.29068 6.0798 7.57565 6.96183 7.57565C7.84386 7.57565 8.55889 8.29068 8.55889 9.17271C8.55889 10.0547 7.84386 10.7698 6.96183 10.7698ZM10.5849 7.67505C9.703 7.67505 8.98779 6.96068 8.98779 6.07907C8.98779 5.19747 9.703 4.4831 10.5849 4.4831C11.4667 4.4831 12.1819 5.19747 12.1819 6.07907C12.1819 6.96068 11.4667 7.67505 10.5849 7.67505ZM3.4291 5.72245C3.93712 5.72245 4.34896 5.3111 4.34896 4.80367C4.34896 4.29626 3.93712 3.8849 3.4291 3.8849C2.92107 3.8849 2.50923 4.29626 2.50923 4.80367C2.50923 5.3111 2.92107 5.72245 3.4291 5.72245ZM6.96183 10.0926C7.46985 10.0926 7.88169 9.68074 7.88169 9.17271C7.88169 8.66469 7.46985 8.25285 6.96183 8.25285C6.4538 8.25285 6.04196 8.66469 6.04196 9.17271C6.04196 9.68074 6.4538 10.0926 6.96183 10.0926ZM10.5849 6.99785C11.0929 6.99785 11.5047 6.5865 11.5047 6.07907C11.5047 5.57165 11.0929 5.1603 10.5849 5.1603C10.0768 5.1603 9.66499 5.57165 9.66499 6.07907C9.66499 6.5865 10.0768 6.99785 10.5849 6.99785Z" fill="#333333"/>
</svg>
