<svg xmlns="http://www.w3.org/2000/svg" fill="none" viewBox="0 0 24 24">
  <path fill="#000" fill-rule="evenodd" d="M11 2H4a2 2 0 0 0-2 2v12a2 2 0 0 0 2 2h6.625V7.5A2.876 2.876 0 0 1 13 4.668V4a2 2 0 0 0-2-2ZM7.207 7.293a1 1 0 0 0-1.414 1.414L6.086 9H4a1 1 0 0 0 0 2h2.086l-.293.293a1 1 0 1 0 1.414 1.414l2-2a1 1 0 0 0 0-1.414l-2-2Z" clip-rule="evenodd"/>
  <path fill="#000" fill-rule="evenodd" d="M13 22a1.99 1.99 0 0 1-.625-.1V7.5c0-.621.504-1.125 1.125-1.125h7.666c.505.363.834.956.834 1.625v12a2 2 0 0 1-2 2h-7Zm4.707-9.293a1 1 0 0 0-1.414-1.414l-2 2a1 1 0 0 0 0 1.414l2 2a1 1 0 0 0 1.414-1.414L17.414 15H19.5a1 1 0 1 0 0-2h-2.086l.293-.293Z" clip-rule="evenodd"/>
</svg>
