<svg xmlns="http://www.w3.org/2000/svg" fill="none" viewBox="0 0 24 24">
  <path fill="#000" d="m18.448 18.254-.509-.861.509.86Zm.491-.861h-1 1Zm-7.973 4.01-.537.844.537-.844Zm2.09.035.508.86-.508-.86ZM1.904 8.137l-.512-.86.512.86Zm0 .859-.512.859.512-.86Zm10.608 5.711.512.86-.512-.86Zm-1.024 0 .512-.859-.512.86Zm10.608-6.57.512-.86-.512.86Zm0 .859-.512-.86.512.86ZM6.018 18.258l.536-.844-.536.844Zm6.494-15.833-.512.86.512-.86Zm-1.024 0 .512.86-.512-.86ZM23.2 8.55a1 1 0 1 0-2 0h2Zm-2 5.4a1 1 0 1 0 2 0h-2ZM12 3.285l9.584 5.712 1.024-1.718-9.584-5.712L12 3.284Zm9.584 4.853L12 13.848l1.024 1.718 9.584-5.711-1.024-1.718Zm-19.168.859L12 3.284l-1.024-1.718-9.584 5.712 1.024 1.718ZM12 13.848l-5.934-3.536-1.024 1.718 5.934 3.536L12 13.848Zm-5.934-3.536-3.65-2.175-1.024 1.718 3.65 2.175 1.024-1.718Zm-1.512.859v6.243h2v-6.243h-2Zm.927 7.931 4.948 3.145 1.073-1.688-4.948-3.145-1.073 1.688Zm8.083 3.197 5.392-3.184-1.017-1.722-5.392 3.184 1.017 1.722Zm6.375-4.906V11.17h-2v6.222h2Zm-.983 1.722a2 2 0 0 0 .983-1.722h-2l1.017 1.722Zm-8.527 3.132a3 3 0 0 0 3.135.052l-1.017-1.722a1 1 0 0 1-1.045-.018l-1.073 1.688ZM1.392 7.277a1.5 1.5 0 0 0 0 2.578l1.024-1.718a.5.5 0 0 1 0 .859L1.392 7.278ZM12 13.849l-1.024 1.718a2 2 0 0 0 2.048 0L12 13.848Zm9.584-4.852a.5.5 0 0 1 0-.86l1.024 1.719a1.5 1.5 0 0 0 0-2.577l-1.024 1.718Zm-17.03 8.418a2 2 0 0 0 .927 1.688l1.073-1.688h-2Zm8.47-15.848a2 2 0 0 0-2.048 0L12 3.284l1.024-1.718ZM21.2 8.55v5.4h2v-5.4h-2Z"/>
</svg>
