<svg xmlns="http://www.w3.org/2000/svg" fill="none" viewBox="0 0 24 24">
  <path fill="none" stroke="currentColor" stroke-linecap="round" stroke-linejoin="round" stroke-width="2" d="M11.726 20.229V5.417m0 14.812L10.27 18.77a4.387 4.387 0 0 0-3.103-1.285h-3.67A1.096 1.096 0 0 1 2.4 16.389V4.869c0-.606.492-1.098 1.098-1.098h4.216c1.164 0 2.28.463 3.103 1.286l.91.909.908-.91a4.389 4.389 0 0 1 3.103-1.285h4.765c.606 0 1.097.492 1.097 1.098v11.52c0 .606-.49 1.097-1.097 1.097h-4.216c-1.164 0-2.28.462-3.103 1.285l-1.458 1.458Z"/>
</svg>
