<svg width="24" height="24" viewBox="0 0 24 24" fill="none" xmlns="http://www.w3.org/2000/svg">
<g filter="url(#filter0_ii_3969_17765)">
<path d="M15.1006 2L20.1006 7V20C20.1006 21.1045 19.2051 21.9999 18.1006 22H5.90039C4.79582 22 3.90039 21.1046 3.90039 20V4C3.90039 2.89543 4.79582 2 5.90039 2H15.1006Z" fill="#4876F9"/>
</g>
<g filter="url(#filter1_dd_3969_17765)">
<path d="M10.4847 17L11.9908 11.4791H12.0185L13.5152 17H14.356L16.25 10.375H15.4L13.9495 15.933H13.9125L12.4158 10.375H11.5935L10.0875 15.933H10.0505L8.6 10.375H7.75L9.644 17H10.4847Z" fill="white"/>
</g>
<path d="M15.2655 7L20.0996 7L15.0996 2L15.0996 6.83407C15.0996 6.92571 15.1739 7 15.2655 7Z" fill="#B5C8FC"/>
<defs>
<filter id="filter0_ii_3969_17765" x="3.90039" y="1.98963" width="16.2002" height="20.0207" filterUnits="userSpaceOnUse" color-interpolation-filters="sRGB">
<feFlood flood-opacity="0" result="BackgroundImageFix"/>
<feBlend mode="normal" in="SourceGraphic" in2="BackgroundImageFix" result="shape"/>
<feColorMatrix in="SourceAlpha" type="matrix" values="0 0 0 0 0 0 0 0 0 0 0 0 0 0 0 0 0 0 127 0" result="hardAlpha"/>
<feOffset dy="-0.0207407"/>
<feGaussianBlur stdDeviation="0.00518519"/>
<feComposite in2="hardAlpha" operator="arithmetic" k2="-1" k3="1"/>
<feColorMatrix type="matrix" values="0 0 0 0 0 0 0 0 0 0 0 0 0 0 0 0 0 0 0.3 0"/>
<feBlend mode="normal" in2="shape" result="effect1_innerShadow_3969_17765"/>
<feColorMatrix in="SourceAlpha" type="matrix" values="0 0 0 0 0 0 0 0 0 0 0 0 0 0 0 0 0 0 127 0" result="hardAlpha"/>
<feOffset dy="0.0207407"/>
<feGaussianBlur stdDeviation="0.00518519"/>
<feComposite in2="hardAlpha" operator="arithmetic" k2="-1" k3="1"/>
<feColorMatrix type="matrix" values="0 0 0 0 1 0 0 0 0 1 0 0 0 0 1 0 0 0 0.3 0"/>
<feBlend mode="normal" in2="effect1_innerShadow_3969_17765" result="effect2_innerShadow_3969_17765"/>
</filter>
<filter id="filter1_dd_3969_17765" x="7.73963" y="10.3646" width="8.59333" height="6.73907" filterUnits="userSpaceOnUse" color-interpolation-filters="sRGB">
<feFlood flood-opacity="0" result="BackgroundImageFix"/>
<feColorMatrix in="SourceAlpha" type="matrix" values="0 0 0 0 0 0 0 0 0 0 0 0 0 0 0 0 0 0 127 0" result="hardAlpha"/>
<feOffset dx="0.0414815" dy="0.0622222"/>
<feGaussianBlur stdDeviation="0.0207407"/>
<feColorMatrix type="matrix" values="0 0 0 0 0 0 0 0 0 0 0 0 0 0 0 0 0 0 0.1 0"/>
<feBlend mode="normal" in2="BackgroundImageFix" result="effect1_dropShadow_3969_17765"/>
<feColorMatrix in="SourceAlpha" type="matrix" values="0 0 0 0 0 0 0 0 0 0 0 0 0 0 0 0 0 0 127 0" result="hardAlpha"/>
<feOffset/>
<feGaussianBlur stdDeviation="0.00518519"/>
<feColorMatrix type="matrix" values="0 0 0 0 0 0 0 0 0 0 0 0 0 0 0 0 0 0 0.4 0"/>
<feBlend mode="normal" in2="effect1_dropShadow_3969_17765" result="effect2_dropShadow_3969_17765"/>
<feBlend mode="normal" in="SourceGraphic" in2="effect2_dropShadow_3969_17765" result="shape"/>
</filter>
</defs>
</svg>
