<svg width="12" height="12" viewBox="0 0 12 12" fill="none" xmlns="http://www.w3.org/2000/svg">
<path d="M2.75821 2.74818V1.87069C2.75821 1.54761 3.02204 1.28571 3.3475 1.28571H8.94585C9.27131 1.28571 9.53515 1.54761 9.53515 1.87069V4.21064M1.28542 9.54427L1.28546 5.09626C1.28547 4.65073 1.2853 4.01615 1.28516 3.55667C1.28506 3.2335 1.54893 2.97183 1.87448 2.97183H4.68259L6.04045 4.4117H10.1244C10.4499 4.4117 10.7137 4.67362 10.7137 4.9967L10.7136 9.54434C10.7136 10.1905 10.1859 10.7143 9.53499 10.7143L2.46402 10.7143C1.81309 10.7143 1.28541 10.1904 1.28542 9.54427Z" stroke="#999999" stroke-linecap="round" stroke-linejoin="round"/>
</svg>
