<svg width="14" height="14" viewBox="0 0 14 14" fill="none" xmlns="http://www.w3.org/2000/svg">
<path d="M1.75 11.4433V11.452C1.7675 12.257 2.40712 12.9063 3.213 12.9063H11.375C11.858 12.9063 12.25 12.5204 12.25 12.0374V1.96788C12.25 1.85301 12.2274 1.73927 12.1834 1.63316C12.1394 1.52705 12.0749 1.43065 11.9937 1.34947C11.9124 1.26828 11.8159 1.20392 11.7098 1.16004C11.6036 1.11616 11.4899 1.09364 11.375 1.09375H3.5C2.53312 1.09375 1.75 1.87075 1.75 2.83763V11.4433ZM4.2 6.15475V2.8C4.2 2.6075 4.3575 2.45 4.55 2.45H6.65C6.84337 2.45 7 2.6075 7 2.8V6.15475C7.00005 6.22401 6.97956 6.29174 6.9411 6.34934C6.90265 6.40695 6.84796 6.45186 6.78398 6.47837C6.71999 6.50488 6.64957 6.51181 6.58164 6.49829C6.51371 6.48476 6.45132 6.45138 6.40237 6.40238L5.84763 5.84763C5.81512 5.81508 5.77652 5.78927 5.73403 5.77165C5.69154 5.75404 5.646 5.74498 5.6 5.74498C5.554 5.74498 5.50846 5.75404 5.46597 5.77165C5.42348 5.78927 5.38488 5.81508 5.35238 5.84763L4.79762 6.40238C4.74868 6.45138 4.68629 6.48476 4.61836 6.49829C4.55043 6.51181 4.48001 6.50488 4.41602 6.47837C4.35204 6.45186 4.29735 6.40695 4.2589 6.34934C4.22044 6.29174 4.19995 6.22401 4.2 6.15475ZM3.129 11.711C3.02633 11.6095 2.975 11.4858 2.975 11.34C2.975 11.1953 3.02633 11.0717 3.129 10.969C3.23108 10.8663 3.35475 10.815 3.5 10.815H11.025V11.865H3.5C3.35475 11.865 3.23108 11.8137 3.129 11.711Z" fill="#A768FF"/>
</svg>
