<svg width="14" height="14" viewBox="0 0 14 14" fill="none" xmlns="http://www.w3.org/2000/svg">
<path d="M11.3045 4.24407C10.668 4.24407 10.1133 3.90661 9.82322 3.40881L5.30136 5.78407C5.35781 5.94441 5.38701 6.11593 5.38701 6.29492C5.38701 6.40864 5.37533 6.51864 5.35197 6.62492L10.1833 9.16237C10.4831 8.90881 10.8744 8.75593 11.3045 8.75593C12.2389 8.75593 12.9981 9.48305 12.9981 10.378C12.9981 11.2729 12.2389 12 11.3045 12C10.3702 12 9.61104 11.2729 9.61104 10.378C9.61104 10.1915 9.64413 10.0125 9.70448 9.84661L4.9685 7.36136C4.65705 7.70254 4.20156 7.91695 3.69351 7.91695C2.75916 7.91695 2 7.18983 2 6.29492C2 5.4 2.75916 4.67288 3.69351 4.67288C4.13148 4.67288 4.53053 4.83322 4.83224 5.09424L9.61299 2.58475C9.6344 1.70661 10.3858 1 11.3065 1C12.2408 1 13 1.72712 13 2.62203C13 3.51695 12.2389 4.24407 11.3045 4.24407ZM11.3045 11.1797C11.7659 11.1797 12.1416 10.8198 12.1416 10.378C12.1416 9.9361 11.7659 9.57627 11.3045 9.57627C10.8432 9.57627 10.4675 9.9361 10.4675 10.378C10.4675 10.8198 10.8432 11.1797 11.3045 11.1797ZM3.69351 5.49322C3.23217 5.49322 2.85649 5.85305 2.85649 6.29492C2.85649 6.73678 3.23217 7.09661 3.69351 7.09661C4.15484 7.09661 4.53053 6.73678 4.53053 6.29492C4.53053 5.85305 4.15484 5.49322 3.69351 5.49322ZM11.3045 1.82034C10.8432 1.82034 10.4675 2.18017 10.4675 2.62203C10.4675 3.0639 10.8432 3.42373 11.3045 3.42373C11.7659 3.42373 12.1416 3.0639 12.1416 2.62203C12.1416 2.18017 11.7659 1.82034 11.3045 1.82034Z" fill="#333333"/>
</svg>
